<svg xmlns="http://www.w3.org/2000/svg" viewBox="0 0 64 64" id="page-optimization"><path fill="#2b2e63" d="M60.8 4.3H3.2C1.4 4.3 0 5.8 0 7.5v48.9c0 1.8 1.4 3.2 3.2 3.2h57.6c1.8 0 3.2-1.4 3.2-3.2V7.5c0-1.7-1.4-3.2-3.2-3.2zm1.3 52.2c0 .7-.6 1.3-1.3 1.3H3.2c-.7 0-1.3-.6-1.3-1.3v-41H62v41zm0-43H1.9v-6c0-.7.6-1.3 1.3-1.3h57.6c.7 0 1.3.6 1.3 1.3v6z"></path><path fill="#d7e9f2" d="M1.9 15.5v41c0 .7.6 1.3 1.3 1.3h57.6c.7 0 1.3-.6 1.3-1.3v-41H1.9zM15.6 31v19.2c0 .5-.4 1-1 1-.5 0-1-.4-1-1V31c-1.1-.4-1.9-1.5-1.9-2.7s.8-2.3 1.9-2.7V23c0-.5.4-1 1-1 .5 0 1 .4 1 1v2.6c1.1.4 1.9 1.5 1.9 2.7 0 1.3-.8 2.3-1.9 2.7zm11.2 10.3v8.9c0 .5-.4 1-1 1-.5 0-1-.4-1-1v-8.9c-1.1-.4-1.9-1.5-1.9-2.7 0-1.3.8-2.3 1.9-2.7V23c0-.5.4-1 1-1 .5 0 1 .4 1 1v12.9c1.1.4 1.9 1.5 1.9 2.7.1 1.3-.7 2.3-1.9 2.7zm12.3-7v15.9c0 .5-.4 1-1 1-.5 0-1-.4-1-1V34.3c-1.1-.4-1.9-1.5-1.9-2.7 0-1.3.8-2.3 1.9-2.7V23c0-.5.4-1 1-1 .5 0 1 .4 1 1v5.8c1.1.4 1.9 1.5 1.9 2.7s-.8 2.4-1.9 2.8zm11.3 12.2v3.7c0 .5-.4 1-1 1-.5 0-1-.4-1-1v-3.7c-1.1-.4-1.9-1.5-1.9-2.7 0-1.3.8-2.3 1.9-2.7V23c0-.5.4-1 1-1 .5 0 1 .4 1 1v18c1.1.4 1.9 1.5 1.9 2.7 0 1.3-.8 2.4-1.9 2.8z"></path><path fill="#f26e61" d="M60.8 6.3H3.2c-.7 0-1.3.6-1.3 1.3v6H62v-6c.1-.8-.5-1.3-1.2-1.3zm-50.1 4.6H8.8c-.5 0-1-.4-1-1 0-.5.4-1 1-1h1.9c.5 0 1 .4 1 1 0 .5-.4 1-1 1zm6.6 0h-1.9c-.5 0-1-.4-1-1 0-.5.4-1 1-1h1.9c.5 0 1 .4 1 1 0 .5-.5 1-1 1zm6.5 0h-1.9c-.5 0-1-.4-1-1 0-.5.4-1 1-1h1.9c.5 0 1 .4 1 1 0 .5-.4 1-1 1zm31.4 0H31.8c-.5 0-1-.4-1-1 0-.5.4-1 1-1h23.4c.5 0 1 .4 1 1 0 .5-.5 1-1 1z"></path><path fill="#b7dae7" d="M62.1 15.5v41c0 .7-.6 1.3-1.3 1.3H3.2c-.7 0-1.3-.6-1.3-1.3v-41h1.5v40.8h57.1V15.5h1.6z"></path><path fill="#e15e5a" d="M62.1 7.5v6h-1.5V7.8H3.4v5.8H1.9v-6c0-.7.6-1.3 1.3-1.3h57.6c.7 0 1.3.5 1.3 1.2z"></path><path fill="#2b2e63" d="M56.2 9.9c0 .5-.4 1-1 1H31.8c-.5 0-1-.4-1-1 0-.5.4-1 1-1h23.4c.5 0 1 .5 1 1zm-31.4 0c0 .5-.4 1-1 1h-1.9c-.5 0-1-.4-1-1 0-.5.4-1 1-1h1.9c.6 0 1 .5 1 1zm-6.5 0c0 .5-.4 1-1 1h-1.9c-.5 0-1-.4-1-1 0-.5.4-1 1-1h1.9c.5 0 1 .5 1 1zm-6.6 0c0 .5-.4 1-1 1H8.8c-.5 0-1-.4-1-1 0-.5.4-1 1-1h1.9c.6 0 1 .5 1 1zm3.9 15.7V23c0-.5-.4-1-1-1-.5 0-1 .4-1 1v2.6c-1.1.4-1.9 1.5-1.9 2.7s.8 2.3 1.9 2.7v19.2c0 .5.4 1 1 1 .5 0 1-.4 1-1V31c1.1-.4 1.9-1.5 1.9-2.7 0-1.3-.8-2.3-1.9-2.7zm-1 3.7c-.6 0-1-.4-1-1 0-.5.4-1 1-1s1 .4 1 1c-.1.5-.5 1-1 1z"></path><path fill="#ffdc7c" d="M15.5 28.3c0 .5-.4 1-.9 1s-1-.4-1-1c0-.5.4-1 1-1s.9.5.9 1z"></path><path fill="#2b2e63" d="M50.4 41V23c0-.5-.4-1-1-1-.5 0-1 .4-1 1v18c-1.1.4-1.9 1.5-1.9 2.7 0 1.3.8 2.3 1.9 2.7v3.7c0 .5.4 1 1 1 .5 0 1-.4 1-1v-3.7c1.1-.4 1.9-1.5 1.9-2.7 0-1.2-.8-2.3-1.9-2.7zm-1 3.7c-.5 0-1-.4-1-1s.4-1 1-1c.5 0 1 .4 1 1s-.4 1-1 1z"></path><path fill="#ffdc7c" d="M50.4 43.8c0 .5-.4 1-1 1-.5 0-1-.4-1-1s.4-1 1-1 1 .4 1 1z"></path><path fill="#2b2e63" d="M26.8 35.9V23c0-.5-.4-1-1-1-.5 0-1 .4-1 1v12.9c-1.1.4-1.9 1.5-1.9 2.7 0 1.3.8 2.3 1.9 2.7v8.9c0 .5.4 1 1 1 .5 0 1-.4 1-1v-8.9c1.1-.4 1.9-1.5 1.9-2.7.1-1.3-.7-2.3-1.9-2.7zm-.9 3.7c-.5 0-1-.4-1-1s.4-1 1-1c.5 0 1 .4 1 1s-.5 1-1 1z"></path><path fill="#ffdc7c" d="M26.8 38.6c0 .5-.4 1-1 1-.5 0-1-.4-1-1s.4-1 1-1 1 .5 1 1z"></path><path fill="#2b2e63" d="M39.1 28.8V23c0-.5-.4-1-1-1-.5 0-1 .4-1 1v5.8c-1.1.4-1.9 1.5-1.9 2.7 0 1.3.8 2.3 1.9 2.7v15.9c0 .5.4 1 1 1 .5 0 1-.4 1-1V34.3c1.1-.4 1.9-1.5 1.9-2.7s-.8-2.4-1.9-2.8zm-.9 3.7c-.6 0-1-.4-1-1 0-.5.4-1 1-1s1 .4 1 1c-.1.6-.5 1-1 1z"></path><path fill="#ffdc7c" d="M39.1 31.6c0 .5-.4.9-.9 1-.5 0-1-.4-1-1 0-.5.4-1 1-1s.9.4.9 1z"></path></svg>