<svg xmlns="http://www.w3.org/2000/svg" enable-background="new 0 0 66 66" viewBox="0 0 66 66" id="target-website"><path fill="#E6E6E8" d="M48,4.4H3.3C2,4.4,1,5.5,1,6.7v52.5c0,1.3,1,2.3,2.3,2.3H48c1.3,0,2.3-1,2.3-2.3V6.7
		C50.3,5.5,49.3,4.4,48,4.4z"></path><rect width="39" height="11.7" x="5.8" y="45.2" fill="#D4D8DB"></rect><polygon fill="#FAD22C" points="5.8 56.9 11.8 50.5 18.4 50.5 23.7 48.9 30.2 49.4 37.1 48.1 41.2 47 44.8 46.7 44.8 56.9"></polygon><path fill="#53528A" d="M48,4.4H3.3C2,4.4,1,5.5,1,6.7v6.9h49.3V6.7C50.3,5.5,49.3,4.4,48,4.4z"></path><polygon fill="#9AD6D5" points="14.6 29.6 5.8 40.7 5.8 18.4"></polygon><polygon fill="#9AD6D5" points="24.1 41.7 6.7 41.7 15.4 30.6"></polygon><polygon fill="#9AD6D5" points="24.1 17.4 15.4 28.6 6.7 17.4"></polygon><polygon fill="#9AD6D5" points="25 18.4 25 40.7 16.2 29.6"></polygon><rect width="16.1" height="4.8" x="28.7" y="37.3" fill="#D4D8DB"></rect><rect width="16.1" height="4.8" x="28.7" y="27.4" fill="#D4D8DB"></rect><rect width="16.1" height="4.8" x="28.7" y="17.4" fill="#D4D8DB"></rect><path fill="#1E87B7" d="M5.8,56.9l5.9-4.1l7.9,0.8c0,0,4.5-2.4,4.9-2.5c0.3-0.1,12.2,0.3,12.2,0.3l5.9-2.9l2.2-0.6v9H5.8z"></path><circle cx="49.8" cy="30.6" r="15.1" fill="#E8664A"></circle><circle cx="49.8" cy="30.6" r="11.3" fill="#E6E6E8"></circle><circle cx="49.8" cy="30.6" r="7.3" fill="#E8664A"></circle><circle cx="49.8" cy="30.6" r="3.5" fill="#E6E6E8"></circle><path fill="#D95239" d="M49.8,41.9c-6.3,0-11.3-5.1-11.3-11.3s5.1-11.3,11.3-11.3l0,0v-3.8l0,0c-8.3,0-15.1,6.8-15.1,15.1
					s6.8,15.1,15.1,15.1l0,0V41.9L49.8,41.9z"></path><path fill="#D4D8DB" d="M57.2,30.6c0,4-3.3,7.3-7.3,7.3v4c6.3,0,11.3-5.1,11.3-11.3s-5.1-11.3-11.3-11.3v4
					C53.9,23.2,57.2,26.5,57.2,30.6z"></path><path fill="#D95239" d="M57.2,30.6c0-4-3.3-7.3-7.3-7.3v3.8c1.9,0,3.5,1.6,3.5,3.5s-1.6,3.5-3.5,3.5v3.8
					C53.9,37.9,57.2,34.6,57.2,30.6z"></path><path fill="#E6E6E8" d="M53.3,30.6c0-1.9-1.6-3.5-3.5-3.5v7C51.8,34.1,53.3,32.5,53.3,30.6z"></path><path fill="#D4D8DB" d="M46.3,30.6c0,1.9,1.6,3.5,3.5,3.5l0,0v-7l0,0C47.9,27.1,46.3,28.6,46.3,30.6z"></path><polygon fill="#6FAC43" points="59.6 26.2 56.3 25.3 61.7 19.9 65 20.8"></polygon><polygon fill="#6FAC43" points="54.3 20.9 55.2 24.1 60.6 18.7 59.7 15.5"></polygon><path fill="#465C6A" d="M62.8,17.8c-0.5-0.5-1.3-0.5-1.8,0L49.5,29.3c-0.5,0.5-0.5,1.3,0,1.8c0.5,0.5,1.3,0.5,1.8,0l11.5-11.5
				C63.3,19.1,63.3,18.3,62.8,17.8z"></path><circle cx="6.7" cy="8.9" r="1.7" fill="#FFF"></circle><circle cx="12.4" cy="8.9" r="1.7" fill="#FFF"></circle><circle cx="18.1" cy="8.9" r="1.7" fill="#FFF"></circle><path fill="#3B4C56" d="M3.3,4.4C2,4.4,1,5.5,1,6.7v52.5c0,1.3,1,2.3,2.3,2.3h23.5V4.4H3.3z" opacity=".15"></path></svg>